<svg width="33" height="29" viewBox="0 0 33 29" fill="none" xmlns="http://www.w3.org/2000/svg">
<path d="M6.63396 8.31162V4.70063C6.63396 2.37801 8.48702 0.487579 10.8096 0.487579H22.1937C24.5163 0.487579 26.4074 2.37734 26.4074 4.70063V8.31094H30.8067C31.8192 8.31094 32.64 9.1318 32.64 10.1443V14.1297C32.64 15.1429 31.8192 15.9631 30.8067 15.9631H30.2603L28.2571 26.9679C28.0988 27.8391 27.3391 28.4724 26.4536 28.4724H6.54902C5.66292 28.4724 4.90458 27.8391 4.74557 26.9673L2.74369 15.9631H2.23405C1.22156 15.9631 0.400692 15.1429 0.400692 14.1297V10.1443C0.400692 9.1318 1.22156 8.31094 2.23405 8.31094L6.63396 8.31162ZM23.0112 4.70063C23.0112 4.25758 22.6367 3.88384 22.1937 3.88384H10.8076C10.3652 3.88384 10.0289 4.25758 10.0289 4.70063V8.31094H23.0112V4.70063ZM20.4752 21.9204C20.4752 22.6251 21.0385 23.1959 21.7432 23.1959C22.4472 23.1959 23.0112 22.6251 23.0112 21.9204V14.9186C23.0112 14.214 22.4472 13.6438 21.7432 13.6438C21.0378 13.6438 20.4752 14.2153 20.4752 14.9186V21.9204ZM15.2306 21.9204C15.2306 22.6251 15.7946 23.1959 16.4986 23.1959C17.2026 23.1959 17.7673 22.6251 17.7673 21.9204V14.9186C17.7673 14.214 17.2026 13.6438 16.4986 13.6438C15.7939 13.6438 15.2306 14.2153 15.2306 14.9186V21.9204ZM9.98605 21.9204C9.98605 22.6251 10.5501 23.1959 11.2534 23.1959C11.958 23.1959 12.522 22.6251 12.522 21.9204V14.9186C12.522 14.214 11.958 13.6438 11.2534 13.6438C10.5501 13.6438 9.98605 14.2153 9.98605 14.9186V21.9204Z" fill="#007F00"/>
</svg>
