<svg width="17" height="17" viewBox="0 0 17 17" fill="none" xmlns="http://www.w3.org/2000/svg">
<path d="M16.9975 7.07031C16.9975 6.76897 16.6761 6.64844 16.435 6.60826L11.3926 5.875L9.13253 1.30469C9.04213 1.11384 8.87137 0.892857 8.64035 0.892857C8.40932 0.892857 8.23856 1.11384 8.14816 1.30469L5.88811 5.875L0.845703 6.60826C0.594587 6.64844 0.283203 6.76897 0.283203 7.07031C0.283203 7.25112 0.413783 7.42187 0.534319 7.55246L4.19057 11.1083L3.32673 16.1306C3.31669 16.2009 3.30664 16.2612 3.30664 16.3315C3.30664 16.5926 3.43722 16.8337 3.72852 16.8337C3.86914 16.8337 3.99972 16.7835 4.1303 16.7132L8.64035 14.3426L13.1504 16.7132C13.2709 16.7835 13.4116 16.8337 13.5522 16.8337C13.8435 16.8337 13.964 16.5926 13.964 16.3315C13.964 16.2612 13.964 16.2009 13.954 16.1306L13.0901 11.1083L16.7363 7.55246C16.8669 7.42187 16.9975 7.25112 16.9975 7.07031Z" fill="#F3761B"/>
</svg>
