<svg width="49" height="48" viewBox="0 0 49 48" fill="none" xmlns="http://www.w3.org/2000/svg">
<path d="M42.7381 8H5.40476C4.69752 8 4.01924 8.28095 3.51915 8.78105C3.01905 9.28115 2.7381 9.95942 2.7381 10.6667V37.3333C2.7381 38.0406 3.01905 38.7188 3.51915 39.2189C4.01924 39.719 4.69752 40 5.40476 40H25.4048L26.1648 39.0667L27.4048 37.5467L27.2848 37.3333H5.40476V10.6667H42.7381V22.08C43.751 22.7357 44.6515 23.5506 45.4048 24.4933V10.6667C45.4048 9.95942 45.1238 9.28115 44.6237 8.78105C44.1236 8.28095 43.4453 8 42.7381 8Z" fill="#007F00"/>
<path d="M9.40482 16H32.0715V18.1333H9.40482V16Z" fill="#007F00"/>
<path d="M9.40482 21.3334H24.0715V23.4667H9.40482V21.3334Z" fill="#007F00"/>
<path d="M9.40482 30.6667H22.7381V32.8001H9.40482V30.6667Z" fill="#007F00"/>
<path d="M36.6847 22.9733C34.9785 22.9597 33.3079 23.4612 31.8912 24.4122C30.4745 25.3632 29.3776 26.7194 28.7439 28.3036C28.1102 29.8879 27.9692 31.6264 28.3392 33.2921C28.7093 34.9578 29.5732 36.4731 30.8181 37.64L28.2314 40.8L29.4314 45.6133L34.3114 39.6666C35.8561 40.1234 37.5 40.1234 39.0447 39.6666L43.9247 45.6133L45.1247 40.8L42.5381 37.64C43.7829 36.4731 44.6469 34.9578 45.0169 33.2921C45.3869 31.6264 45.2459 29.8879 44.6122 28.3036C43.9785 26.7194 42.8816 25.3632 41.4649 24.4122C40.0482 23.4612 38.3776 22.9597 36.6714 22.9733H36.6847ZM36.6847 37.2133C35.5517 37.1975 34.4486 36.8471 33.5141 36.2062C32.5797 35.5652 31.8556 34.6623 31.4329 33.6109C31.0102 32.5596 30.9077 31.4067 31.1384 30.2973C31.3691 29.1878 31.9226 28.1714 32.7294 27.3757C33.5362 26.58 34.5602 26.0406 35.6727 25.8252C36.7852 25.6099 37.9366 25.7283 38.982 26.1655C40.0274 26.6027 40.9202 27.3392 41.5482 28.2824C42.1762 29.2256 42.5113 30.3335 42.5114 31.4666C42.4973 33.0002 41.8764 34.4659 40.7844 35.5428C39.6925 36.6198 38.2184 37.2204 36.6847 37.2133Z" fill="#007F00"/>
</svg>
