<svg width="41" height="31" viewBox="0 0 41 31" fill="none" xmlns="http://www.w3.org/2000/svg">
<path fill-rule="evenodd" clip-rule="evenodd" d="M11.9311 28.1405C11.9311 27.7617 12.0816 27.3984 12.3494 27.1305C12.6173 26.8626 12.9807 26.7121 13.3595 26.7121H39.0716C39.4505 26.7121 39.8138 26.8626 40.0817 27.1305C40.3496 27.3984 40.5001 27.7617 40.5001 28.1405C40.5001 28.5194 40.3496 28.8827 40.0817 29.1506C39.8138 29.4185 39.4505 29.569 39.0716 29.569H13.3595C12.9807 29.569 12.6173 29.4185 12.3494 29.1506C12.0816 28.8827 11.9311 28.5194 11.9311 28.1405ZM11.9311 16.7129C11.9311 16.3341 12.0816 15.9708 12.3494 15.7029C12.6173 15.435 12.9807 15.2845 13.3595 15.2845H39.0716C39.4505 15.2845 39.8138 15.435 40.0817 15.7029C40.3496 15.9708 40.5001 16.3341 40.5001 16.7129C40.5001 17.0918 40.3496 17.4551 40.0817 17.723C39.8138 17.9909 39.4505 18.1414 39.0716 18.1414H13.3595C12.9807 18.1414 12.6173 17.9909 12.3494 17.723C12.0816 17.4551 11.9311 17.0918 11.9311 16.7129ZM11.9311 5.28534C11.9311 4.90649 12.0816 4.54316 12.3494 4.27527C12.6173 4.00739 12.9807 3.85689 13.3595 3.85689H39.0716C39.4505 3.85689 39.8138 4.00739 40.0817 4.27527C40.3496 4.54316 40.5001 4.90649 40.5001 5.28534C40.5001 5.66419 40.3496 6.02752 40.0817 6.29541C39.8138 6.56329 39.4505 6.71379 39.0716 6.71379H13.3595C12.9807 6.71379 12.6173 6.56329 12.3494 6.29541C12.0816 6.02752 11.9311 5.66419 11.9311 5.28534ZM8.65705 1.4171C8.79007 1.54979 8.89561 1.70742 8.96763 1.88096C9.03964 2.0545 9.07671 2.24055 9.07671 2.42844C9.07671 2.61633 9.03964 2.80238 8.96763 2.97592C8.89561 3.14946 8.79007 3.30709 8.65705 3.43978L4.3717 7.72513C4.239 7.85816 4.08137 7.9637 3.90783 8.03572C3.73429 8.10773 3.54824 8.14479 3.36035 8.14479C3.17246 8.14479 2.98642 8.10773 2.81287 8.03572C2.63933 7.9637 2.4817 7.85816 2.34901 7.72513L0.92056 6.29668C0.787749 6.16387 0.682397 6.0062 0.61052 5.83268C0.538643 5.65915 0.501648 5.47317 0.501648 5.28534C0.501648 5.09752 0.538643 4.91153 0.61052 4.73801C0.682397 4.56448 0.787749 4.40681 0.92056 4.274C1.05337 4.14119 1.21104 4.03584 1.38457 3.96396C1.55809 3.89208 1.74408 3.85509 1.9319 3.85509C2.11973 3.85509 2.30571 3.89208 2.47924 3.96396C2.65276 4.03584 2.81043 4.14119 2.94325 4.274L3.36035 4.69396L6.63436 1.4171C6.76705 1.28407 6.92468 1.17853 7.09822 1.10652C7.27177 1.0345 7.45781 0.997437 7.6457 0.997437C7.83359 0.997437 8.01964 1.0345 8.19318 1.10652C8.36672 1.17853 8.52435 1.28407 8.65705 1.4171ZM8.65705 12.8447C8.79007 12.9774 8.89561 13.135 8.96763 13.3086C9.03964 13.4821 9.07671 13.6682 9.07671 13.856C9.07671 14.0439 9.03964 14.23 8.96763 14.4035C8.89561 14.5771 8.79007 14.7347 8.65705 14.8674L4.3717 19.1527C4.239 19.2858 4.08137 19.3913 3.90783 19.4633C3.73429 19.5353 3.54824 19.5724 3.36035 19.5724C3.17246 19.5724 2.98642 19.5353 2.81287 19.4633C2.63933 19.3913 2.4817 19.2858 2.34901 19.1527L0.92056 17.7243C0.652335 17.4561 0.501648 17.0923 0.501648 16.7129C0.501648 16.3336 0.652335 15.9698 0.92056 15.7016C1.18878 15.4334 1.55258 15.2827 1.9319 15.2827C2.31123 15.2827 2.67502 15.4334 2.94325 15.7016L3.36035 16.1216L6.63436 12.8447C6.76705 12.7117 6.92468 12.6061 7.09822 12.5341C7.27177 12.4621 7.45781 12.425 7.6457 12.425C7.83359 12.425 8.01964 12.4621 8.19318 12.5341C8.36672 12.6061 8.52435 12.7117 8.65705 12.8447ZM8.65705 24.2723C8.79007 24.405 8.89561 24.5626 8.96763 24.7362C9.03964 24.9097 9.07671 25.0958 9.07671 25.2836C9.07671 25.4715 9.03964 25.6576 8.96763 25.8311C8.89561 26.0047 8.79007 26.1623 8.65705 26.295L4.3717 30.5803C4.239 30.7134 4.08137 30.8189 3.90783 30.8909C3.73429 30.9629 3.54824 31 3.36035 31C3.17246 31 2.98642 30.9629 2.81287 30.8909C2.63933 30.8189 2.4817 30.7134 2.34901 30.5803L0.92056 29.1519C0.652335 28.8837 0.501648 28.5199 0.501648 28.1405C0.501648 27.7612 0.652335 27.3974 0.92056 27.1292C1.18878 26.861 1.55258 26.7103 1.9319 26.7103C2.31123 26.7103 2.67502 26.861 2.94325 27.1292L3.36035 27.5492L6.63436 24.2723C6.76705 24.1393 6.92468 24.0337 7.09822 23.9617C7.27177 23.8897 7.45781 23.8526 7.6457 23.8526C7.83359 23.8526 8.01964 23.8897 8.19318 23.9617C8.36672 24.0337 8.52435 24.1393 8.65705 24.2723Z" fill="#007F00"/>
</svg>
